# xmcd
#
# Track frame offsets:
#	150
#	15366
#	27282
#	44341
#	60987
#	75671
#	92420
#
# Disc length: 1492 seconds
# Revision: 0
# Processed by: cddbd v1.5.2PL0 Copyright (c) Steve Scherf et al.
# Submitted via: dBpowerAMP V12.0
#
DISCID=4005d207
DTITLE=Amber Hayes - Any Day Is A Good Day
DYEAR=2012
DGENRE=Country
TTITLE0=I Built This Wall
TTITLE1=Suspicious
TTITLE2=Somewhere Out West
TTITLE3=Any Day is a Good Day
TTITLE4=Me and Loretta
TTITLE5=Far Far Away
TTITLE6=A Little While Longer
EXTD=
EXTT0=
EXTT1=
EXTT2=
EXTT3=
EXTT4=
EXTT5=
EXTT6=
PLAYORDER=
